<?xml version='1.0' encoding='UTF-8'?>
<svg width="45mm" height="45mm" version="1.1" viewBox="0 0 45 45" xmlns="http://www.w3.org/2000/svg"><path d="M4,4H5V5H4zM5,4H6V5H5zM6,4H7V5H6zM7,4H8V5H7zM8,4H9V5H8zM9,4H10V5H9zM10,4H11V5H10zM12,4H13V5H12zM14,4H15V5H14zM15,4H16V5H15zM17,4H18V5H17zM18,4H19V5H18zM19,4H20V5H19zM23,4H24V5H23zM24,4H25V5H24zM25,4H26V5H25zM26,4H27V5H26zM29,4H30V5H29zM34,4H35V5H34zM35,4H36V5H35zM36,4H37V5H36zM37,4H38V5H37zM38,4H39V5H38zM39,4H40V5H39zM40,4H41V5H40zM4,5H5V6H4zM10,5H11V6H10zM12,5H13V6H12zM13,5H14V6H13zM15,5H16V6H15zM19,5H20V6H19zM22,5H23V6H22zM23,5H24V6H23zM29,5H30V6H29zM30,5H31V6H30zM32,5H33V6H32zM34,5H35V6H34zM40,5H41V6H40zM4,6H5V7H4zM6,6H7V7H6zM7,6H8V7H7zM8,6H9V7H8zM10,6H11V7H10zM12,6H13V7H12zM13,6H14V7H13zM15,6H16V7H15zM23,6H24V7H23zM25,6H26V7H25zM28,6H29V7H28zM29,6H30V7H29zM30,6H31V7H30zM34,6H35V7H34zM36,6H37V7H36zM37,6H38V7H37zM38,6H39V7H38zM40,6H41V7H40zM4,7H5V8H4zM6,7H7V8H6zM7,7H8V8H7zM8,7H9V8H8zM10,7H11V8H10zM14,7H15V8H14zM16,7H17V8H16zM18,7H19V8H18zM19,7H20V8H19zM20,7H21V8H20zM21,7H22V8H21zM24,7H25V8H24zM25,7H26V8H25zM28,7H29V8H28zM29,7H30V8H29zM31,7H32V8H31zM32,7H33V8H32zM34,7H35V8H34zM36,7H37V8H36zM37,7H38V8H37zM38,7H39V8H38zM40,7H41V8H40zM4,8H5V9H4zM6,8H7V9H6zM7,8H8V9H7zM8,8H9V9H8zM10,8H11V9H10zM12,8H13V9H12zM13,8H14V9H13zM18,8H19V9H18zM20,8H21V9H20zM22,8H23V9H22zM23,8H24V9H23zM26,8H27V9H26zM32,8H33V9H32zM34,8H35V9H34zM36,8H37V9H36zM37,8H38V9H37zM38,8H39V9H38zM40,8H41V9H40zM4,9H5V10H4zM10,9H11V10H10zM18,9H19V10H18zM19,9H20V10H19zM25,9H26V10H25zM27,9H28V10H27zM28,9H29V10H28zM29,9H30V10H29zM32,9H33V10H32zM34,9H35V10H34zM40,9H41V10H40zM4,10H5V11H4zM5,10H6V11H5zM6,10H7V11H6zM7,10H8V11H7zM8,10H9V11H8zM9,10H10V11H9zM10,10H11V11H10zM12,10H13V11H12zM14,10H15V11H14zM16,10H17V11H16zM18,10H19V11H18zM20,10H21V11H20zM22,10H23V11H22zM24,10H25V11H24zM26,10H27V11H26zM28,10H29V11H28zM30,10H31V11H30zM32,10H33V11H32zM34,10H35V11H34zM35,10H36V11H35zM36,10H37V11H36zM37,10H38V11H37zM38,10H39V11H38zM39,10H40V11H39zM40,10H41V11H40zM14,11H15V12H14zM15,11H16V12H15zM16,11H17V12H16zM19,11H20V12H19zM20,11H21V12H20zM21,11H22V12H21zM22,11H23V12H22zM27,11H28V12H27zM29,11H30V12H29zM32,11H33V12H32zM4,12H5V13H4zM7,12H8V13H7zM8,12H9V13H8zM9,12H10V13H9zM10,12H11V13H10zM11,12H12V13H11zM12,12H13V13H12zM13,12H14V13H13zM17,12H18V13H17zM18,12H19V13H18zM23,12H24V13H23zM28,12H29V13H28zM30,12H31V13H30zM31,12H32V13H31zM32,12H33V13H32zM33,12H34V13H33zM36,12H37V13H36zM38,12H39V13H38zM39,12H40V13H39zM40,12H41V13H40zM4,13H5V14H4zM6,13H7V14H6zM7,13H8V14H7zM9,13H10V14H9zM12,13H13V14H12zM13,13H14V14H13zM14,13H15V14H14zM15,13H16V14H15zM16,13H17V14H16zM18,13H19V14H18zM20,13H21V14H20zM21,13H22V14H21zM22,13H23V14H22zM26,13H27V14H26zM27,13H28V14H27zM31,13H32V14H31zM33,13H34V14H33zM36,13H37V14H36zM37,13H38V14H37zM39,13H40V14H39zM4,14H5V15H4zM7,14H8V15H7zM8,14H9V15H8zM10,14H11V15H10zM11,14H12V15H11zM12,14H13V15H12zM14,14H15V15H14zM17,14H18V15H17zM18,14H19V15H18zM19,14H20V15H19zM20,14H21V15H20zM23,14H24V15H23zM24,14H25V15H24zM27,14H28V15H27zM31,14H32V15H31zM34,14H35V15H34zM35,14H36V15H35zM38,14H39V15H38zM40,14H41V15H40zM13,15H14V16H13zM15,15H16V16H15zM17,15H18V16H17zM18,15H19V16H18zM20,15H21V16H20zM21,15H22V16H21zM22,15H23V16H22zM23,15H24V16H23zM24,15H25V16H24zM26,15H27V16H26zM28,15H29V16H28zM31,15H32V16H31zM32,15H33V16H32zM33,15H34V16H33zM35,15H36V16H35zM36,15H37V16H36zM37,15H38V16H37zM38,15H39V16H38zM39,15H40V16H39zM40,15H41V16H40zM4,16H5V17H4zM6,16H7V17H6zM7,16H8V17H7zM8,16H9V17H8zM9,16H10V17H9zM10,16H11V17H10zM14,16H15V17H14zM15,16H16V17H15zM16,16H17V17H16zM19,16H20V17H19zM20,16H21V17H20zM27,16H28V17H27zM31,16H32V17H31zM34,16H35V17H34zM35,16H36V17H35zM40,16H41V17H40zM4,17H5V18H4zM5,17H6V18H5zM8,17H9V18H8zM11,17H12V18H11zM12,17H13V18H12zM14,17H15V18H14zM18,17H19V18H18zM19,17H20V18H19zM20,17H21V18H20zM22,17H23V18H22zM25,17H26V18H25zM27,17H28V18H27zM29,17H30V18H29zM31,17H32V18H31zM32,17H33V18H32zM36,17H37V18H36zM37,17H38V18H37zM4,18H5V19H4zM5,18H6V19H5zM7,18H8V19H7zM8,18H9V19H8zM9,18H10V19H9zM10,18H11V19H10zM12,18H13V19H12zM15,18H16V19H15zM16,18H17V19H16zM17,18H18V19H17zM18,18H19V19H18zM19,18H20V19H19zM22,18H23V19H22zM23,18H24V19H23zM24,18H25V19H24zM28,18H29V19H28zM31,18H32V19H31zM34,18H35V19H34zM36,18H37V19H36zM37,18H38V19H37zM38,18H39V19H38zM39,18H40V19H39zM40,18H41V19H40zM4,19H5V20H4zM6,19H7V20H6zM7,19H8V20H7zM8,19H9V20H8zM13,19H14V20H13zM14,19H15V20H14zM15,19H16V20H15zM17,19H18V20H17zM18,19H19V20H18zM19,19H20V20H19zM20,19H21V20H20zM23,19H24V20H23zM27,19H28V20H27zM28,19H29V20H28zM32,19H33V20H32zM35,19H36V20H35zM37,19H38V20H37zM38,19H39V20H38zM40,19H41V20H40zM4,20H5V21H4zM5,20H6V21H5zM6,20H7V21H6zM7,20H8V21H7zM8,20H9V21H8zM9,20H10V21H9zM10,20H11V21H10zM17,20H18V21H17zM19,20H20V21H19zM21,20H22V21H21zM22,20H23V21H22zM23,20H24V21H23zM24,20H25V21H24zM27,20H28V21H27zM28,20H29V21H28zM29,20H30V21H29zM32,20H33V21H32zM33,20H34V21H33zM34,20H35V21H34zM38,20H39V21H38zM40,20H41V21H40zM9,21H10V22H9zM11,21H12V22H11zM13,21H14V22H13zM14,21H15V22H14zM15,21H16V22H15zM17,21H18V22H17zM26,21H27V22H26zM31,21H32V22H31zM38,21H39V22H38zM4,22H5V23H4zM6,22H7V23H6zM7,22H8V23H7zM10,22H11V23H10zM13,22H14V23H13zM15,22H16V23H15zM18,22H19V23H18zM20,22H21V23H20zM23,22H24V23H23zM24,22H25V23H24zM25,22H26V23H25zM27,22H28V23H27zM29,22H30V23H29zM31,22H32V23H31zM33,22H34V23H33zM34,22H35V23H34zM40,22H41V23H40zM5,23H6V24H5zM7,23H8V24H7zM9,23H10V24H9zM11,23H12V24H11zM12,23H13V24H12zM13,23H14V24H13zM15,23H16V24H15zM17,23H18V24H17zM18,23H19V24H18zM19,23H20V24H19zM20,23H21V24H20zM23,23H24V24H23zM27,23H28V24H27zM28,23H29V24H28zM29,23H30V24H29zM30,23H31V24H30zM32,23H33V24H32zM33,23H34V24H33zM34,23H35V24H34zM37,23H38V24H37zM40,23H41V24H40zM7,24H8V25H7zM10,24H11V25H10zM13,24H14V25H13zM15,24H16V25H15zM16,24H17V25H16zM21,24H22V25H21zM22,24H23V25H22zM26,24H27V25H26zM30,24H31V25H30zM32,24H33V25H32zM33,24H34V25H33zM34,24H35V25H34zM35,24H36V25H35zM36,24H37V25H36zM37,24H38V25H37zM5,25H6V26H5zM6,25H7V26H6zM8,25H9V26H8zM11,25H12V26H11zM13,25H14V26H13zM14,25H15V26H14zM16,25H17V26H16zM17,25H18V26H17zM18,25H19V26H18zM19,25H20V26H19zM21,25H22V26H21zM22,25H23V26H22zM23,25H24V26H23zM24,25H25V26H24zM25,25H26V26H25zM26,25H27V26H26zM27,25H28V26H27zM29,25H30V26H29zM30,25H31V26H30zM31,25H32V26H31zM33,25H34V26H33zM36,25H37V26H36zM38,25H39V26H38zM39,25H40V26H39zM4,26H5V27H4zM10,26H11V27H10zM12,26H13V27H12zM13,26H14V27H13zM14,26H15V27H14zM15,26H16V27H15zM19,26H20V27H19zM20,26H21V27H20zM26,26H27V27H26zM27,26H28V27H27zM29,26H30V27H29zM31,26H32V27H31zM33,26H34V27H33zM34,26H35V27H34zM35,26H36V27H35zM37,26H38V27H37zM40,26H41V27H40zM6,27H7V28H6zM7,27H8V28H7zM8,27H9V28H8zM9,27H10V28H9zM11,27H12V28H11zM12,27H13V28H12zM13,27H14V28H13zM15,27H16V28H15zM17,27H18V28H17zM18,27H19V28H18zM19,27H20V28H19zM20,27H21V28H20zM22,27H23V28H22zM24,27H25V28H24zM26,27H27V28H26zM27,27H28V28H27zM28,27H29V28H28zM30,27H31V28H30zM31,27H32V28H31zM33,27H34V28H33zM34,27H35V28H34zM35,27H36V28H35zM36,27H37V28H36zM37,27H38V28H37zM38,27H39V28H38zM40,27H41V28H40zM4,28H5V29H4zM5,28H6V29H5zM8,28H9V29H8zM10,28H11V29H10zM12,28H13V29H12zM18,28H19V29H18zM19,28H20V29H19zM21,28H22V29H21zM23,28H24V29H23zM24,28H25V29H24zM27,28H28V29H27zM30,28H31V29H30zM32,28H33V29H32zM33,28H34V29H33zM34,28H35V29H34zM35,28H36V29H35zM4,29H5V30H4zM5,29H6V30H5zM6,29H7V30H6zM7,29H8V30H7zM9,29H10V30H9zM11,29H12V30H11zM12,29H13V30H12zM13,29H14V30H13zM14,29H15V30H14zM16,29H17V30H16zM17,29H18V30H17zM18,29H19V30H18zM21,29H22V30H21zM22,29H23V30H22zM25,29H26V30H25zM27,29H28V30H27zM30,29H31V30H30zM31,29H32V30H31zM33,29H34V30H33zM36,29H37V30H36zM4,30H5V31H4zM5,30H6V31H5zM9,30H10V31H9zM10,30H11V31H10zM11,30H12V31H11zM13,30H14V31H13zM14,30H15V31H14zM15,30H16V31H15zM17,30H18V31H17zM19,30H20V31H19zM21,30H22V31H21zM23,30H24V31H23zM24,30H25V31H24zM29,30H30V31H29zM31,30H32V31H31zM34,30H35V31H34zM35,30H36V31H35zM36,30H37V31H36zM39,30H40V31H39zM40,30H41V31H40zM4,31H5V32H4zM6,31H7V32H6zM7,31H8V32H7zM9,31H10V32H9zM12,31H13V32H12zM14,31H15V32H14zM16,31H17V32H16zM17,31H18V32H17zM20,31H21V32H20zM26,31H27V32H26zM27,31H28V32H27zM35,31H36V32H35zM37,31H38V32H37zM38,31H39V32H38zM4,32H5V33H4zM8,32H9V33H8zM10,32H11V33H10zM11,32H12V33H11zM14,32H15V33H14zM15,32H16V33H15zM19,32H20V33H19zM20,32H21V33H20zM23,32H24V33H23zM26,32H27V33H26zM28,32H29V33H28zM29,32H30V33H29zM30,32H31V33H30zM31,32H32V33H31zM32,32H33V33H32zM33,32H34V33H33zM34,32H35V33H34zM35,32H36V33H35zM36,32H37V33H36zM37,32H38V33H37zM38,32H39V33H38zM39,32H40V33H39zM12,33H13V34H12zM13,33H14V34H13zM15,33H16V34H15zM16,33H17V34H16zM18,33H19V34H18zM19,33H20V34H19zM21,33H22V34H21zM23,33H24V34H23zM24,33H25V34H24zM25,33H26V34H25zM26,33H27V34H26zM29,33H30V34H29zM32,33H33V34H32zM36,33H37V34H36zM38,33H39V34H38zM39,33H40V34H39zM4,34H5V35H4zM5,34H6V35H5zM6,34H7V35H6zM7,34H8V35H7zM8,34H9V35H8zM9,34H10V35H9zM10,34H11V35H10zM12,34H13V35H12zM13,34H14V35H13zM14,34H15V35H14zM16,34H17V35H16zM17,34H18V35H17zM19,34H20V35H19zM21,34H22V35H21zM22,34H23V35H22zM23,34H24V35H23zM24,34H25V35H24zM25,34H26V35H25zM26,34H27V35H26zM27,34H28V35H27zM28,34H29V35H28zM29,34H30V35H29zM32,34H33V35H32zM34,34H35V35H34zM36,34H37V35H36zM39,34H40V35H39zM40,34H41V35H40zM4,35H5V36H4zM10,35H11V36H10zM12,35H13V36H12zM14,35H15V36H14zM15,35H16V36H15zM16,35H17V36H16zM19,35H20V36H19zM20,35H21V36H20zM23,35H24V36H23zM28,35H29V36H28zM29,35H30V36H29zM32,35H33V36H32zM36,35H37V36H36zM39,35H40V36H39zM4,36H5V37H4zM6,36H7V37H6zM7,36H8V37H7zM8,36H9V37H8zM10,36H11V37H10zM12,36H13V37H12zM13,36H14V37H13zM15,36H16V37H15zM20,36H21V37H20zM22,36H23V37H22zM23,36H24V37H23zM27,36H28V37H27zM28,36H29V37H28zM30,36H31V37H30zM31,36H32V37H31zM32,36H33V37H32zM33,36H34V37H33zM34,36H35V37H34zM35,36H36V37H35zM36,36H37V37H36zM39,36H40V37H39zM4,37H5V38H4zM6,37H7V38H6zM7,37H8V38H7zM8,37H9V38H8zM10,37H11V38H10zM12,37H13V38H12zM13,37H14V38H13zM14,37H15V38H14zM16,37H17V38H16zM17,37H18V38H17zM18,37H19V38H18zM23,37H24V38H23zM27,37H28V38H27zM29,37H30V38H29zM31,37H32V38H31zM32,37H33V38H32zM33,37H34V38H33zM34,37H35V38H34zM38,37H39V38H38zM40,37H41V38H40zM4,38H5V39H4zM6,38H7V39H6zM7,38H8V39H7zM8,38H9V39H8zM10,38H11V39H10zM13,38H14V39H13zM14,38H15V39H14zM16,38H17V39H16zM22,38H23V39H22zM24,38H25V39H24zM25,38H26V39H25zM26,38H27V39H26zM27,38H28V39H27zM28,38H29V39H28zM29,38H30V39H29zM32,38H33V39H32zM33,38H34V39H33zM36,38H37V39H36zM40,38H41V39H40zM4,39H5V40H4zM10,39H11V40H10zM13,39H14V40H13zM15,39H16V40H15zM16,39H17V40H16zM19,39H20V40H19zM21,39H22V40H21zM22,39H23V40H22zM24,39H25V40H24zM27,39H28V40H27zM31,39H32V40H31zM33,39H34V40H33zM34,39H35V40H34zM36,39H37V40H36zM37,39H38V40H37zM38,39H39V40H38zM39,39H40V40H39zM40,39H41V40H40zM4,40H5V41H4zM5,40H6V41H5zM6,40H7V41H6zM7,40H8V41H7zM8,40H9V41H8zM9,40H10V41H9zM10,40H11V41H10zM12,40H13V41H12zM13,40H14V41H13zM15,40H16V41H15zM20,40H21V41H20zM23,40H24V41H23zM24,40H25V41H24zM27,40H28V41H27zM28,40H29V41H28zM31,40H32V41H31zM32,40H33V41H32zM33,40H34V41H33zM35,40H36V41H35zM37,40H38V41H37zM40,40H41V41H40z" id="qr-path" fill="#000000" fill-opacity="1" fill-rule="nonzero" stroke="none" /></svg>